<svg width="468" height="419" viewBox="0 0 468 419" fill="none" xmlns="http://www.w3.org/2000/svg">
<g clip-path="url(#clip0_601_364)">
<path d="M464.271 413.008C463.453 414.173 462.628 415.328 461.81 416.476C459.46 418.125 456.672 419.006 453.818 419H14.1818C11.4552 419.002 8.78645 418.199 6.49861 416.688C5.73933 415.668 4.98862 414.64 4.22934 413.612L4.98861 413.187L227.551 287.504C229.526 286.391 231.745 285.806 234.002 285.803C236.259 285.8 238.479 286.379 240.457 287.487L463.52 412.583L464.271 413.008Z" fill="#415F75"/>
<path d="M453.818 148.733L260.93 35.2453C252.817 30.4721 243.615 27.9569 234.246 27.9522C224.878 27.9475 215.673 30.4534 207.555 35.2185L14.1818 148.733C10.4222 148.738 6.8181 150.262 4.15964 152.97C1.50119 155.679 0.00531851 159.351 0 163.181V404.552C0.00438037 408.383 1.49994 412.055 4.1586 414.764C6.81726 417.472 10.4219 418.996 14.1818 419H453.818C457.577 418.994 461.181 417.47 463.839 414.761C466.497 412.053 467.994 408.382 468 404.552V163.181C467.995 159.351 466.499 155.679 463.84 152.97C461.182 150.262 457.578 148.738 453.818 148.733ZM466.332 404.552C466.324 407.931 465.003 411.169 462.658 413.558C460.313 415.947 457.134 417.292 453.818 417.301H14.1818C10.8649 417.294 7.68555 415.949 5.34013 413.56C2.99471 411.17 1.67442 407.931 1.66845 404.552V163.181C1.67248 159.801 2.99215 156.561 5.33799 154.171C7.68383 151.781 10.8643 150.437 14.1818 150.432L207.555 36.9183C215.673 32.1532 224.878 29.6472 234.246 29.652C243.615 29.6567 252.817 32.1719 260.93 36.9451L453.818 150.432C457.136 150.437 460.316 151.781 462.662 154.171C465.008 156.561 466.328 159.801 466.332 163.181V404.552Z" fill="#415F75"/>
<path d="M234.25 285.294C232.797 285.299 231.354 285.052 229.982 284.564L229.73 284.474L229.679 283.902C229.522 283.981 229.363 284.056 229.204 284.128L229.036 284.203L228.868 284.127C228.517 283.97 228.168 283.792 227.831 283.599L74.246 195.674V16.1479C74.2506 11.9793 75.878 7.98281 78.7713 5.03517C81.6646 2.08753 85.5874 0.429484 89.6791 0.424805H378.321C382.413 0.429484 386.335 2.08753 389.229 5.03517C392.122 7.98281 393.75 11.9793 393.754 16.1479V195.904L393.541 196.026L240.67 283.599C238.707 284.714 236.497 285.297 234.25 285.294V285.294Z" fill="#FEFEFE"/>
<path d="M234.25 285.719C232.75 285.724 231.26 285.469 229.844 284.965L229.339 284.784L229.317 284.541L229.036 284.667L228.7 284.517C228.336 284.354 227.975 284.169 227.626 283.969L73.8289 195.923V16.1481C73.8336 11.8668 75.5051 7.76232 78.4765 4.73502C81.448 1.70772 85.4768 0.00484535 89.6791 0H378.321C382.523 0.00486331 386.552 1.70773 389.523 4.73503C392.495 7.76233 394.166 11.8668 394.171 16.1481V196.152L240.874 283.969C238.849 285.12 236.569 285.722 234.25 285.719ZM230.902 283.529C233.969 284.426 237.26 284.052 240.057 282.488L392.503 195.158V16.1481C392.498 12.3175 391.003 8.645 388.344 5.93636C385.686 3.22772 382.081 1.70411 378.321 1.6998H89.6791C85.9192 1.70409 82.3144 3.2277 79.6557 5.93635C76.997 8.645 75.5015 12.3175 75.4973 16.1481V194.928L85.4993 200.651L228.444 282.488C228.639 282.6 228.836 282.705 229.036 282.803C229.237 282.705 229.434 282.6 229.628 282.488L230.752 281.843L230.902 283.529Z" fill="#415F75"/>
<path d="M464.304 155.005L403.765 189.681L393.337 195.655L240.465 283.229C238.565 284.308 236.425 284.873 234.25 284.869C232.844 284.873 231.448 284.635 230.121 284.164C229.752 284.043 229.389 283.902 229.036 283.739C228.694 283.586 228.361 283.416 228.035 283.229L85.0909 201.392L74.6631 195.426L3.82081 154.869C3.62818 154.756 3.48688 154.571 3.42755 154.353C3.36822 154.135 3.39565 153.902 3.5039 153.704C3.61245 153.508 3.79288 153.364 4.00556 153.304C4.21825 153.243 4.44582 153.271 4.63833 153.381L74.6631 193.471L85.0909 199.437L228.853 281.742C229.33 282.014 229.826 282.25 230.338 282.447C230.555 282.532 230.78 282.608 231.005 282.676C232.433 283.123 233.935 283.27 235.42 283.11C236.906 282.949 238.344 282.484 239.648 281.742L393.337 193.709L403.765 187.734L463.487 153.526C463.582 153.471 463.687 153.436 463.796 153.423C463.904 153.409 464.014 153.418 464.12 153.448C464.225 153.478 464.323 153.529 464.41 153.598C464.496 153.666 464.568 153.752 464.621 153.849C464.675 153.946 464.709 154.053 464.722 154.163C464.736 154.274 464.727 154.386 464.698 154.494C464.668 154.601 464.618 154.701 464.551 154.789C464.483 154.877 464.4 154.95 464.304 155.005Z" fill="#415F75"/>
<path d="M136.875 56.0935H113.517C111.747 56.0935 110.049 55.3771 108.798 54.1021C107.546 52.827 106.843 51.0976 106.843 49.2943C106.843 47.491 107.546 45.7616 108.798 44.4865C110.049 43.2115 111.747 42.4951 113.517 42.4951H136.875C138.645 42.4951 140.343 43.2115 141.594 44.4865C142.846 45.7616 143.549 47.491 143.549 49.2943C143.549 51.0976 142.846 52.827 141.594 54.1021C140.343 55.3771 138.645 56.0935 136.875 56.0935Z" fill="#415F75"/>
<path d="M164.405 79.0408H113.517C111.747 79.0408 110.049 78.3244 108.798 77.0493C107.546 75.7742 106.843 74.0448 106.843 72.2416C106.843 70.4383 107.546 68.7089 108.798 67.4338C110.049 66.1587 111.747 65.4424 113.517 65.4424H164.405C166.175 65.4424 167.872 66.1587 169.124 67.4338C170.375 68.7089 171.078 70.4383 171.078 72.2416C171.078 74.0448 170.375 75.7742 169.124 77.0493C167.872 78.3244 166.175 79.0408 164.405 79.0408Z" fill="#E6E6E6"/>
<path d="M306.578 140.233H162.257C160.487 140.233 158.789 139.517 157.538 138.242C156.286 136.967 155.583 135.237 155.583 133.434C155.583 131.631 156.286 129.901 157.538 128.626C158.789 127.351 160.487 126.635 162.257 126.635H306.578C308.348 126.635 310.045 127.351 311.297 128.626C312.548 129.901 313.251 131.631 313.251 133.434C313.251 135.237 312.548 136.967 311.297 138.242C310.045 139.517 308.348 140.233 306.578 140.233Z" fill="#415F75"/>
<path d="M319.925 166.58H148.075C146.305 166.58 144.607 165.864 143.356 164.589C142.104 163.314 141.401 161.584 141.401 159.781C141.401 157.978 142.104 156.248 143.356 154.973C144.607 153.698 146.305 152.982 148.075 152.982H319.925C321.695 152.982 323.393 153.698 324.644 154.973C325.896 156.248 326.599 157.978 326.599 159.781C326.599 161.584 325.896 163.314 324.644 164.589C323.393 165.864 321.695 166.58 319.925 166.58Z" fill="#E6E6E6"/>
<path d="M319.925 192.077H148.075C146.305 192.077 144.607 191.361 143.356 190.085C142.104 188.81 141.401 187.081 141.401 185.278C141.401 183.474 142.104 181.745 143.356 180.47C144.607 179.195 146.305 178.479 148.075 178.479H319.925C321.695 178.479 323.393 179.195 324.644 180.47C325.896 181.745 326.599 183.474 326.599 185.278C326.599 187.081 325.896 188.81 324.644 190.085C323.393 191.361 321.695 192.077 319.925 192.077Z" fill="#E6E6E6"/>
</g>
<defs>
<clipPath id="clip0_601_364">
<rect width="468" height="419" fill="white"/>
</clipPath>
</defs>
</svg>
